<svg id="Layer_1" data-name="Layer 1" xmlns="http://www.w3.org/2000/svg" viewBox="0 0 1110 1091"><defs><style>.cls-1{fill:#fff;}</style></defs><path class="cls-1" d="M446.84,293.18v5.29A16.55,16.55,0,0,1,430.3,315H365v65.27a16.54,16.54,0,0,1-16.54,16.54H343.2a16.55,16.55,0,0,1-16.54-16.54V315H261.39a16.55,16.55,0,0,1-16.54-16.54v-5.29a16.54,16.54,0,0,1,16.54-16.54h65.27V211.37a16.54,16.54,0,0,1,16.54-16.54h5.29A16.53,16.53,0,0,1,365,211.37v65.27H430.3A16.54,16.54,0,0,1,446.84,293.18Z"/><path class="cls-1" d="M597.75,274.28c-73.65,0-133.57,59.92-133.57,133.57S524.1,541.42,597.75,541.42,731.32,481.5,731.32,407.85,671.4,274.28,597.75,274.28Zm0,226.42a92.85,92.85,0,1,1,92.85-92.85A93,93,0,0,1,597.75,500.7Z"/><path class="cls-1" d="M840.1,773.48c-9.33,28.33-39.13,51.72-86.17,67.64-38.27,13-86.63,20.38-132.7,20.38l-8.09,0c-6.29,0-14.89.05-23.46.05-17.33,0-27.33-.11-31.34-.36h0c-41.1-1.49-82.89-8.63-116.76-20.09-47-15.92-76.83-39.31-86.16-67.64-9-27.24.43-69.3,29.58-132.37,12.56-27.17,25.76-51.51,34.62-67.14a23,23,0,0,1,40,22.66c-8.54,15.1-21.2,38.45-33,64-25.81,55.89-31.15,87.52-27.54,98.48,1.87,5.7,12.35,25.56,68.43,41.94,22.66,6.62,68.85,17.62,126.71,18.12l.11-.07,4.52,0c42.76,0,89.83-6.59,129.14-18.07,56.08-16.38,66.56-36.24,68.43-41.94,3.61-11-1.73-42.59-27.54-98.48-12.43-26.91-26-51.64-33-64a23,23,0,0,1,40-22.66c8.86,15.62,22.05,40,34.62,67.14C839.67,704.18,849.07,746.24,840.1,773.48Z"/></svg>