<svg id="Layer_1" data-name="Layer 1" xmlns="http://www.w3.org/2000/svg" viewBox="0 0 1110 1091"><defs><style>.cls-1{fill:#fff;}.cls-2{fill:none;}</style></defs><path class="cls-1" d="M684.76,512.85a19,19,0,0,1-19,19H603.62V594a19,19,0,1,1-38.06,0V531.88H503.44a19,19,0,0,1,0-38.06h62.12V431.7a19,19,0,1,1,38.06,0v62.12h62.11A19,19,0,0,1,684.76,512.85Z"/><path class="cls-1" d="M373.62,808.84h0Z"/><path class="cls-1" d="M636.09,808.83h0Z"/><path class="cls-2" d="M338.63,808.84h0Z"/><path class="cls-2" d="M373.62,808.84h0Z"/><path class="cls-2" d="M630.78,808.83h0Z"/><path class="cls-1" d="M338.63,808.84h0Z"/><path class="cls-1" d="M373.62,808.84h0Z"/><path class="cls-1" d="M392.28,808.84h0Z"/><path class="cls-1" d="M737.24,404.87c-.19-7.53-.19-21.28-.14-35.31C737.14,381.69,737.19,394.07,737.24,404.87Z"/><path class="cls-1" d="M737.29,418.52a18.85,18.85,0,0,0,18.81,18.85h.36a18.86,18.86,0,0,0,18.81-18.91v-94A68.26,68.26,0,0,0,707,256.2H336.56a68.26,68.26,0,0,0-68.25,68.26V778.64a68.26,68.26,0,0,0,68.25,68.26H756.24a19,19,0,0,0,0-38.06h-432a19,19,0,1,1,0-38.06h413a38.07,38.07,0,0,0,37.66-32.55v0a36.86,36.86,0,0,0,.4-5.49V655.29c0-9.49-8.54-17.15-19-17h-.57c-10.26.1-18.54,7.63-18.6,16.94-.15,20.74.1,55.85.18,77.53H405.08V294.26H707a30.2,30.2,0,0,1,30.2,30.2c0,.06.06,1.28.06,3.39,0,7.18-.11,24.65-.17,41.71,0,12.13.09,24.51.14,35.31v.22C737.26,409.94,737.28,414.48,737.29,418.52ZM367,732.71H306.37V324.46a30.2,30.2,0,0,1,30.19-30.2H367Z"/><path class="cls-1" d="M775.27,732.71v2a15.67,15.67,0,0,1-.4,3.51A36.86,36.86,0,0,0,775.27,732.71Z"/><path class="cls-1" d="M737.1,369.56c-.05-14.48-.07-28.61,0-39.3a17.42,17.42,0,0,1,.17-2.41C737.3,335,737.16,352.5,737.1,369.56Z"/></svg>