<svg id="Layer_1" data-name="Layer 1" xmlns="http://www.w3.org/2000/svg" viewBox="0 0 1110 1091"><defs><style>.cls-1{fill:#fff;}</style></defs><path class="cls-1" d="M463.1,613.44H297.19a63.86,63.86,0,0,1-63.78-63.78V339.46a63.85,63.85,0,0,1,63.78-63.78H463.1a63.85,63.85,0,0,1,63.78,63.78v210.2A63.86,63.86,0,0,1,463.1,613.44ZM297.19,308.68a30.81,30.81,0,0,0-30.78,30.78v210.2a30.82,30.82,0,0,0,30.78,30.78H463.1a30.81,30.81,0,0,0,30.78-30.78V339.46a30.8,30.8,0,0,0-30.78-30.78Z"/><path class="cls-1" d="M463.1,863.3H297.19a63.85,63.85,0,0,1-63.78-63.78v-86.2a63.85,63.85,0,0,1,63.78-63.78H463.1a63.85,63.85,0,0,1,63.78,63.78v86.2A63.85,63.85,0,0,1,463.1,863.3ZM297.19,682.54a30.82,30.82,0,0,0-30.78,30.78v86.2a30.82,30.82,0,0,0,30.78,30.78H463.1a30.81,30.81,0,0,0,30.78-30.78v-86.2a30.81,30.81,0,0,0-30.78-30.78Z"/><path class="cls-1" d="M807.43,863.3H641.51a63.85,63.85,0,0,1-63.77-63.78V589.32a63.85,63.85,0,0,1,63.77-63.78H807.43a63.85,63.85,0,0,1,63.78,63.78v210.2A63.85,63.85,0,0,1,807.43,863.3ZM641.51,558.54a30.81,30.81,0,0,0-30.77,30.78v210.2a30.81,30.81,0,0,0,30.77,30.78H807.43a30.82,30.82,0,0,0,30.78-30.78V589.32a30.82,30.82,0,0,0-30.78-30.78Z"/><path class="cls-1" d="M807.43,489.44H641.51a63.85,63.85,0,0,1-63.77-63.78v-86.2a63.85,63.85,0,0,1,63.77-63.78H807.43a63.85,63.85,0,0,1,63.78,63.78v86.2A63.85,63.85,0,0,1,807.43,489.44ZM641.51,308.68a30.8,30.8,0,0,0-30.77,30.78v86.2a30.81,30.81,0,0,0,30.77,30.78H807.43a30.82,30.82,0,0,0,30.78-30.78v-86.2a30.81,30.81,0,0,0-30.78-30.78Z"/></svg>