<svg id="Layer_1" data-name="Layer 1" xmlns="http://www.w3.org/2000/svg" viewBox="0 0 1110 1091"><defs><style>.cls-1{fill:#fff;}</style></defs><path class="cls-1" d="M861.65,599.12c-10.34,58.7-38.68,112-81.95,154.2s-97.26,69.09-156.14,77.89c-2.77.41-5.54.66-8.22.91-4.89.45-10,.91-13.62,1a331.25,331.25,0,0,1-47-.92l-6.53-.59c-1.18-.17-2.16-.17-3.34-.37s-2.43-.42-3.65-.57A273.89,273.89,0,0,1,446,799.91c-18.71-10.09-36.57-22.88-54.6-39.11A242.59,242.59,0,0,1,356.32,721c-7.21-10.1-5.39-22.91,4.34-30.46,9.22-7.15,21.85-5.66,30,3.54,1.42,1.6,2.66,3.27,3.85,4.88l1.06,1.43a214.58,214.58,0,0,0,46.24,45c48.86,35.11,104.46,49.3,165.24,42.18,63.59-7.46,116.22-35.5,156.42-83.37,45.6-54.29,64.12-117.29,55.06-187.24-7.92-61.1-35.74-112.18-82.7-151.82-52.71-44.5-114.21-63.22-182.77-55.63-59.44,6.57-110.52,32.91-151.84,78.29a233.63,233.63,0,0,0-50.35,87.87l4.15-2.4a21,21,0,0,1,28.72,7.7,21,21,0,0,1-7.69,28.72l-35,20.18L323.64,540l-.43.25-.44.23-.89.43c-.41.18-.81.35-1.22.5l-.62.23-.78.25a21.49,21.49,0,0,1-6.42,1,22.24,22.24,0,0,1-19.21-11.09L266.36,484.5a21,21,0,0,1,36.42-21l2.71,4.7c19-65.66,60.84-121.82,119.41-159.71,64.67-41.82,141.28-55.9,215.75-39.65C791.4,301.7,888.47,446.79,861.65,599.12Z"/><path class="cls-1" d="M694.91,662.2a22.23,22.23,0,0,1-12.15,3.65,25.26,25.26,0,0,1-15.08-5.29c-12.92-9.64-26-19.49-38.69-29q-9.68-7.29-19.37-14.55l-13.36-10c-12.32-9.27-25.06-18.85-37.69-28.12-7.64-5.6-11.34-13.06-11.29-22.8.09-19.88.07-40.1.06-59.66q0-11.44,0-22.9V449.36q0-29,0-57.88c0-15.05,9.53-25.67,23.15-25.83h.32c13.79,0,23.43,10.67,23.43,26V413.5c0,42.36,0,86.15-.1,129.23,0,2.78.52,3.89,2.56,5.43,20.68,15.52,41.64,31.37,61.92,46.69q17.61,13.32,35.25,26.64c5.13,3.86,10.53,8.91,11.66,17C706.93,648.57,703.26,656.77,694.91,662.2Z"/><path class="cls-1" d="M341.13,529.91l-17.22,9.94a6.7,6.7,0,0,1-.7.37l.43-.25,17.47-10.09Z"/></svg>