<svg id="Layer_1" data-name="Layer 1" xmlns="http://www.w3.org/2000/svg" viewBox="0 0 1110 1091"><defs><style>.cls-1{fill:#fff;}.cls-2{fill:none;}</style></defs><polygon class="cls-1" points="665.03 502.09 665.03 508.37 661.89 505.23 665.03 502.09"/><polygon class="cls-1" points="665.03 502.09 665.03 508.37 661.89 505.23 665.03 502.09"/><path class="cls-1" d="M685,482.13l-72-72a16.34,16.34,0,1,0-23.11,23.1l56.59,56.59H495.73a17.21,17.21,0,1,0,0,34.41H642.9l-53,53A16.34,16.34,0,0,0,613,600.35l72-72,23.1-23.11Zm-23.1,23.1,3.14-3.14v6.28Z"/><polygon class="cls-1" points="661.89 505.23 665.03 502.09 665.03 508.37 661.89 505.23"/><polygon class="cls-1" points="708.11 505.24 685 528.34 708.1 505.23 708.11 505.24"/><path class="cls-1" d="M395.87,808.84h0Z"/><path class="cls-1" d="M658.33,808.83h0Z"/><path class="cls-2" d="M360.88,808.84h0Z"/><path class="cls-2" d="M395.87,808.84h0Z"/><path class="cls-2" d="M653,808.83h0Z"/><path class="cls-1" d="M360.88,808.84h0Z"/><path class="cls-1" d="M395.87,808.84h0Z"/><path class="cls-1" d="M414.53,808.84h0Z"/><path class="cls-1" d="M759.34,341.41c-.14,37.84.12,102.73.2,140.67,0,16.61,8.44,30,18.8,30h.37c10.39,0,18.81-13.49,18.81-30.14V324.46a68.26,68.26,0,0,0-68.26-68.26H358.81a68.25,68.25,0,0,0-68.25,68.26V778.64a68.25,68.25,0,0,0,68.25,68.26H778.49a19,19,0,0,0,0-38.06h-432a19,19,0,1,1,0-38.06h413a38.07,38.07,0,0,0,38.06-38.06h0q0-.56,0-1.11V637.78c0-11.2-8.54-20.26-19-20.14H778c-10.26.11-18.55,9-18.61,20-.14,25.29.12,68.65.2,94,0,.35,0,.7,0,1H427.33V294.26H729.26a30.2,30.2,0,0,1,30.2,30.2c.08.12.08,5.38,0,13.25C759.4,338.92,759.34,340.16,759.34,341.41ZM389.27,732.71H328.62V324.46a30.19,30.19,0,0,1,30.19-30.2h30.46Z"/></svg>