<svg id="Layer_1" data-name="Layer 1" xmlns="http://www.w3.org/2000/svg" viewBox="0 0 1110 1091"><defs><style>.cls-1{fill:#fff;}.cls-2{fill:none;}</style></defs><polygon class="cls-1" points="539.29 481.24 536.15 484.38 536.15 478.1 539.29 481.24"/><path class="cls-1" d="M705.45,462.25H558.28l53-53a16.34,16.34,0,1,0-23.11-23.1l-72,72-23.1,23.1,95.11,95.11a16.33,16.33,0,0,0,23.1-23.1l-56.59-56.59H705.45a17.21,17.21,0,1,0,0-34.41Zm-169.3,22.13V478.1l3.14,3.14Z"/><polygon class="cls-1" points="539.29 481.24 536.15 484.38 536.15 478.1 539.29 481.24"/><polygon class="cls-1" points="516.18 458.13 516.19 458.14 493.09 481.24 493.08 481.23 516.18 458.13"/><polygon class="cls-1" points="539.29 481.24 536.15 484.38 536.15 478.1 539.29 481.24"/><path class="cls-1" d="M416.41,784.83h0Z"/><path class="cls-1" d="M679,784.83h0Z"/><path class="cls-2" d="M381.52,784.84h0Z"/><path class="cls-2" d="M416.51,784.84h0Z"/><path class="cls-2" d="M673.66,784.83h0Z"/><path class="cls-1" d="M749.9,232.2H379.45a68.25,68.25,0,0,0-68.25,68.26V754.64a68.25,68.25,0,0,0,68.25,68.26H799.13a19,19,0,0,0,0-38.06h-432a19,19,0,1,1,0-38.06h413a38.07,38.07,0,0,0,38.06-38.06h0q0-.56,0-1.11V613.78c0-11.2-8.54-20.26-19-20.14h-.56c-10.26.11-18.55,9-18.61,20-.14,25.29.12,68.65.2,94,0,.35,0,.7,0,1H448V270.26H749.9a30.2,30.2,0,0,1,30.2,30.2c.08.12.08,5.38,0,13.25-.1,1.21-.16,2.45-.16,3.7-.14,37.84.12,102.73.2,140.67,0,16.61,8.44,30,18.8,30h.37c10.39,0,18.81-13.49,18.81-30.14V300.46A68.26,68.26,0,0,0,749.9,232.2Zm-340,476.51H349.26V300.46a30.19,30.19,0,0,1,30.19-30.2h30.46Z"/><path class="cls-1" d="M381.52,784.84h0Z"/><path class="cls-1" d="M416.41,784.83h0Z"/><path class="cls-1" d="M435.17,784.84h0Z"/></svg>